<?xml version="1.0" encoding="UTF-8"?>
<!DOCTYPE svg PUBLIC "-//W3C//DTD SVG 1.1//EN" "http://www.w3.org/Graphics/SVG/1.1/DTD/svg11.dtd">
<svg xmlns="http://www.w3.org/2000/svg" style="background: transparent; background-color: transparent; color-scheme: light;" xmlns:xlink="http://www.w3.org/1999/xlink" version="1.1" width="353px" height="313px" viewBox="-0.5 -0.5 353 313"><defs/><g><g data-cell-id="0"><g data-cell-id="1"><g data-cell-id="suK3qFL1VNnpnem2BulR-1"><g><rect x="92.34" y="106" width="130" height="80" fill="#f4ba03" stroke="none" pointer-events="all" style="fill: rgb(244, 186, 3);"/></g></g><g data-cell-id="suK3qFL1VNnpnem2BulR-3"><g><ellipse cx="49.34" cy="47.66" rx="47.665000000000006" ry="47.665000000000006" fill="#2c58a4" stroke="none" pointer-events="all" style="fill: rgb(44, 88, 164);"/></g></g><g data-cell-id="suK3qFL1VNnpnem2BulR-4"><g><rect x="219.66" y="83.74" width="141.67" height="60.95" rx="30.48" ry="30.48" fill="#2c58a4" stroke="none" transform="rotate(60,290.49,114.21)" pointer-events="all" style="fill: rgb(44, 88, 164);"/></g></g><g data-cell-id="suK3qFL1VNnpnem2BulR-2"><g><rect x="173.43" y="67.67" width="130" height="60.06" rx="30.03" ry="30.03" fill="#74a6ff" stroke="none" transform="rotate(-30,238.43,97.7)" pointer-events="all" style="fill: rgb(116, 166, 255);"/></g></g><g data-cell-id="suK3qFL1VNnpnem2BulR-5"><g><rect x="11.67" y="102" width="75.33" height="210" rx="37.67" ry="37.67" fill="#3b77db" stroke="none" pointer-events="all" style="fill: rgb(59, 119, 219);"/></g></g><g data-cell-id="suK3qFL1VNnpnem2BulR-6"><g><rect x="216.28" y="163.25" width="142.04" height="64.35" rx="32.17" ry="32.17" fill="#2c58a4" stroke="none" transform="rotate(115,287.3,195.42)" pointer-events="all" style="fill: rgb(44, 88, 164);"/></g></g><g data-cell-id="suK3qFL1VNnpnem2BulR-7"><g><ellipse cx="266.97" cy="262.97" rx="43.97500000000001" ry="43.97500000000001" fill="#3b77db" stroke="none" pointer-events="all" style="fill: rgb(59, 119, 219);"/></g></g><g data-cell-id="suK3qFL1VNnpnem2BulR-8"><g><rect x="197" y="259.88" width="142.95" height="50" rx="12" ry="12" fill="#3b77db" stroke="none" pointer-events="all" style="fill: rgb(59, 119, 219);"/></g></g><g data-cell-id="suK3qFL1VNnpnem2BulR-9"><g><rect x="3.48" y="126.27" width="130" height="65.5" rx="32.75" ry="32.75" fill="#74a6ff" stroke="none" transform="rotate(45,68.48,159.02)" pointer-events="all" style="fill: rgb(116, 166, 255);"/></g></g></g></g></g></svg>