<?xml version="1.0" encoding="UTF-8"?>
<!DOCTYPE svg PUBLIC "-//W3C//DTD SVG 1.1//EN" "http://www.w3.org/Graphics/SVG/1.1/DTD/svg11.dtd">
<svg xmlns="http://www.w3.org/2000/svg" style="background: transparent; background-color: transparent; color-scheme: light;" xmlns:xlink="http://www.w3.org/1999/xlink" version="1.1" width="390px" height="390px" viewBox="-0.5 -0.5 390 390"><defs/><g><g data-cell-id="0"><g data-cell-id="1"><g data-cell-id="am657cEmM19hJoRvoy8g-12"><g><rect x="0" y="0" width="390" height="390" rx="58.5" ry="58.5" fill="#ffffff" stroke="none" pointer-events="all" style="fill: rgb(255, 255, 255);"/></g></g><g data-cell-id="am657cEmM19hJoRvoy8g-1"><g><rect x="113.34" y="149" width="130" height="80" fill="#f4ba03" stroke="none" pointer-events="all" style="fill: rgb(244, 186, 3);"/></g></g><g data-cell-id="am657cEmM19hJoRvoy8g-2"><g><ellipse cx="70.34" cy="90.66" rx="47.665" ry="47.665" fill="#2c58a4" stroke="none" pointer-events="all" style="fill: rgb(44, 88, 164);"/></g></g><g data-cell-id="am657cEmM19hJoRvoy8g-3"><g><rect x="240.66" y="126.74" width="141.67" height="60.95" rx="30.48" ry="30.48" fill="#2c58a4" stroke="none" transform="rotate(60,311.49,157.21)" pointer-events="all" style="fill: rgb(44, 88, 164);"/></g></g><g data-cell-id="am657cEmM19hJoRvoy8g-4"><g><rect x="194.43" y="110.67" width="130" height="60.06" rx="30.03" ry="30.03" fill="#74a6ff" stroke="none" transform="rotate(-30,259.43,140.7)" pointer-events="all" style="fill: rgb(116, 166, 255);"/></g></g><g data-cell-id="am657cEmM19hJoRvoy8g-5"><g><rect x="32.67" y="145" width="75.33" height="210" rx="37.66" ry="37.66" fill="#3b77db" stroke="none" pointer-events="all" style="fill: rgb(59, 119, 219);"/></g></g><g data-cell-id="am657cEmM19hJoRvoy8g-6"><g><rect x="237.28" y="206.25" width="142.04" height="64.35" rx="32.17" ry="32.17" fill="#2c58a4" stroke="none" transform="rotate(115,308.3,238.42)" pointer-events="all" style="fill: rgb(44, 88, 164);"/></g></g><g data-cell-id="am657cEmM19hJoRvoy8g-7"><g><ellipse cx="287.97" cy="305.97" rx="43.975" ry="43.975" fill="#3b77db" stroke="none" pointer-events="all" style="fill: rgb(59, 119, 219);"/></g></g><g data-cell-id="am657cEmM19hJoRvoy8g-8"><g><rect x="218" y="302.88" width="142.95" height="50" rx="12" ry="12" fill="#3b77db" stroke="none" pointer-events="all" style="fill: rgb(59, 119, 219);"/></g></g><g data-cell-id="am657cEmM19hJoRvoy8g-9"><g><rect x="24.48" y="169.27" width="130" height="65.5" rx="32.75" ry="32.75" fill="#74a6ff" stroke="none" transform="rotate(45,89.48,202.02)" pointer-events="all" style="fill: rgb(116, 166, 255);"/></g></g></g></g></g></svg>