<?xml version="1.0" encoding="UTF-8"?>
<!DOCTYPE svg PUBLIC "-//W3C//DTD SVG 1.1//EN" "http://www.w3.org/Graphics/SVG/1.1/DTD/svg11.dtd">
<svg xmlns="http://www.w3.org/2000/svg" style="background: transparent; background-color: transparent; color-scheme: light;" xmlns:xlink="http://www.w3.org/1999/xlink" version="1.1" width="347px" height="300px" viewBox="-0.5 -0.5 347 300"><defs/><g><g data-cell-id="0"><g data-cell-id="1"><g data-cell-id="suK3qFL1VNnpnem2BulR-1"><g><rect x="90.34" y="93" width="130" height="80" fill="#fbbc04" stroke="none" pointer-events="all" style="fill: rgb(251, 188, 4);"/></g></g><g data-cell-id="suK3qFL1VNnpnem2BulR-2"><g><rect x="173.94" y="64.06" width="130" height="50" rx="25" ry="25" fill="#458bff" stroke="none" transform="rotate(-30,238.94,89.06)" pointer-events="all" style="fill: rgb(69, 139, 255);"/></g></g><g data-cell-id="suK3qFL1VNnpnem2BulR-3"><g><ellipse cx="39.67" cy="39" rx="40" ry="40" fill="#346ac3" stroke="none" pointer-events="all" style="fill: rgb(52, 106, 195);"/></g></g><g data-cell-id="suK3qFL1VNnpnem2BulR-4"><g><rect x="226.67" y="80" width="130" height="50" rx="25" ry="25" fill="#3b77db" stroke="none" transform="rotate(60,291.67,105)" pointer-events="all" style="fill: rgb(59, 119, 219);"/></g></g><g data-cell-id="suK3qFL1VNnpnem2BulR-5"><g><rect x="9.67" y="89" width="60" height="210" rx="30" ry="30" fill="#3b77db" stroke="none" pointer-events="all" style="fill: rgb(59, 119, 219);"/></g></g><g data-cell-id="suK3qFL1VNnpnem2BulR-6"><g><rect x="229.35" y="155" width="130" height="50" rx="25" ry="25" fill="#3b77db" stroke="none" transform="rotate(115,294.35,180)" pointer-events="all" style="fill: rgb(59, 119, 219);"/></g></g><g data-cell-id="suK3qFL1VNnpnem2BulR-7"><g><ellipse cx="272.95" cy="250" rx="40" ry="40" fill="#346ac3" stroke="none" pointer-events="all" style="fill: rgb(52, 106, 195);"/></g></g><g data-cell-id="suK3qFL1VNnpnem2BulR-8"><g><rect x="207.95" y="246.88" width="130" height="50" rx="12" ry="12" fill="#3b77db" stroke="none" pointer-events="all" style="fill: rgb(59, 119, 219);"/></g></g><g data-cell-id="suK3qFL1VNnpnem2BulR-9"><g><rect x="-1" y="119.5" width="130" height="50" rx="25" ry="25" fill="#458bff" stroke="none" transform="rotate(45,64,144.5)" pointer-events="all" style="fill: rgb(69, 139, 255);"/></g></g></g></g></g></svg>